PathFileType	4	(X/Y/Z)	/Users/mathieubourgeois/Desktop/Analyse/Traitement/Sujet_06/Transformed_Static_Sujet_06_Tpose.trc
DataRate	CameraRate	NumFrames	NumMarkers	Units	OrigDataRate	OrigDataStartFrame	OrigNumFrames
120.000000	120.000000	5	36	mm	120.000000	94	252
Frame#	Time	RFHD			RANE			STRN			LANI			LKNE			T10			RHUM			RWRB			C7			LFWT			LTOE			RTOE			LWRA			LBWT			RBWT			RFWT			LKNI			RKNI			RKNE			LANE			RANI			LHEE			RHEE			LHUM			LRAD			RRAD			RWRA			LWRB			LFHD			LBHD			RBHD			RSHO			LSHO			CLAV			LCAR			RCAR			
		X1	Y1	Z1	X2	Y2	Z2	X3	Y3	Z3	X4	Y4	Z4	X5	Y5	Z5	X6	Y6	Z6	X7	Y7	Z7	X8	Y8	Z8	X9	Y9	Z9	X10	Y10	Z10	X11	Y11	Z11	X12	Y12	Z12	X13	Y13	Z13	X14	Y14	Z14	X15	Y15	Z15	X16	Y16	Z16	X17	Y17	Z17	X18	Y18	Z18	X19	Y19	Z19	X20	Y20	Z20	X21	Y21	Z21	X22	Y22	Z22	X23	Y23	Z23	X24	Y24	Z24	X25	Y25	Z25	X26	Y26	Z26	X27	Y27	Z27	X28	Y28	Z28	X29	Y29	Z29	X30	Y30	Z30	X31	Y31	Z31	X32	Y32	Z32	X33	Y33	Z33	X34	Y34	Z34	X35	Y35	Z35	X36	Y36	Z36	

95	0.7833333333333333	-884.9533081054688	1639.035400390625	315.634582519531	-958.88818359375	75.3959197998047	216.3565368652343	-813.2482299804688	1234.039916992188	354.9560546874998	-763.9461059570312	77.6745071411133	224.1825714111327	-674.7882690429688	481.8848266601562	237.2017211914061	-818.9996337890625	1210.930297851562	153.656295776367	-1262.849853515625	1408.70654296875	193.1882629394529	-1487.632690429688	1481.442138671875	202.4615478515622	-817.726318359375	1452.93994140625	196.8325195312498	-702.0056762695312	985.1111450195312	328.5295410156248	-697.3595581054688	37.54554748535158	392.4317016601561	-918.3717651367188	38.57933807373049	399.5890502929686	-121.312240600586	1345.528442382812	121.4756317138671	-762.525146484375	1010.833435058594	173.9301910400389	-869.2152709960938	1011.910095214844	180.9909210205076	-916.2008666992188	988.2927856445312	337.6962280273436	-768.9683227539062	435.767822265625	232.1667938232421	-867.6226196289062	441.9695434570312	218.8382415771483	-962.5419311523438	492.3348999023438	230.4062347412108	-683.2284545898438	69.81873321533205	202.7869415283202	-878.0587768554688	83.64620208740236	226.8545837402343	-724.5613403320312	52.01527786254884	154.4239349365234	-923.0533447265625	53.88271713256837	162.3910827636718	-370.2952270507812	1361.04736328125	151.2392578124999	-363.2015991210938	1316.928833007812	197.0566558837889	-1261.725830078125	1370.651977539062	247.3700714111326	-1500.693725585938	1425.781372070312	181.9553070068357	-125.9109191894531	1405.95556640625	118.6309432983397	-739.2061767578125	1643.061401367188	314.3143920898435	-739.8262329101562	1578.57080078125	177.4364776611326	-868.4938354492188	1580.012451171875	162.0100097656248	-956.0650024414062	1447.8994140625	230.1624603271482	-666.6697387695312	1434.981811523438	218.4169006347655	-810.9619140625	1386.382568359375	315.4166564941405	-38.7999839782715	1386.433471679688	99.64185333251945	-1594.65283203125	1466.018432617188	161.0206451416013	
96	0.7916666666666666	-884.8970947265625	1639.027099609375	315.7567138671873	-958.8920288085938	75.40173339843751	216.3607177734374	-813.2156982421875	1234.0283203125	354.9959106445311	-763.9404296875	77.66759490966798	224.1756591796874	-674.763916015625	481.8865966796875	237.1678009033202	-818.9819946289062	1210.96240234375	153.6603088378904	-1262.826416015625	1408.740478515625	193.2549896240232	-1487.594116210938	1481.492309570312	202.5446472167966	-817.6820678710938	1452.968017578125	196.8786621093748	-701.9898681640625	985.1134643554688	328.5423278808592	-697.35693359375	37.54344940185549	392.4315795898436	-918.3671264648438	38.58190536499026	399.5840759277343	-121.2772369384766	1345.550415039062	121.5454635620116	-762.4854125976562	1010.855224609375	173.9389190673827	-869.1829833984375	1011.940063476562	180.9759216308592	-916.1644897460938	988.2953491210938	337.6958007812498	-768.9464111328125	435.7688598632812	232.1538085937499	-867.6031494140625	441.9574890136719	218.8199157714842	-962.5173950195312	492.3445739746094	230.3898773193358	-683.2173461914062	69.83570861816408	202.7834014892577	-878.0487670898438	83.64124298095705	226.8516540527343	-724.5555419921875	52.01551818847657	154.4196472167968	-923.0513305664062	53.89286804199219	162.3785552978514	-370.2578735351562	1361.061645507812	151.3022155761717	-363.1749267578125	1316.936889648438	197.1014404296874	-1261.694946289062	1370.664916992188	247.4232940673826	-1500.660766601562	1425.828491210938	182.0260162353513	-125.8689270019531	1405.971069335938	118.7180557250976	-739.160400390625	1643.0478515625	314.4414367675779	-739.7783203125	1578.61181640625	177.5261840820311	-868.4514770507812	1580.046630859375	162.1212921142576	-956.0330810546875	1447.906982421875	230.2189636230467	-666.6404418945312	1434.988525390625	218.4721221923826	-810.912353515625	1386.37451171875	315.4478759765623	-38.76829147338869	1386.455322265625	99.75828552246085	-1594.6064453125	1466.099731445312	161.0782775878903	
97	0.8	-884.8575439453125	1639.015869140625	315.8634948730466	-958.894775390625	75.3889617919922	216.3462524414061	-813.1964721679688	1234.031372070312	355.0203247070311	-763.9263305664062	77.66926574707033	224.1671752929687	-674.7417602539062	481.8839111328125	237.1362762451171	-818.9440307617188	1210.976928710938	153.6880645751951	-1262.807983398438	1408.753662109375	193.2829895019529	-1487.556396484375	1481.526123046875	202.6355285644529	-817.6380004882812	1452.980224609375	196.9461975097654	-701.9591064453125	985.1005859375	328.5374145507811	-697.3538208007812	37.55076980590822	392.4328002929686	-918.3680419921875	38.58103179931643	399.5939331054686	-121.247299194336	1345.552734375	121.6176834106444	-762.4655151367188	1010.871398925781	173.9454650878905	-869.1477661132812	1011.950500488281	180.9828186035155	-916.1430053710938	988.2855834960938	337.7120056152342	-768.9332885742188	435.7840881347656	232.1180725097655	-867.5874633789062	441.9585571289062	218.7978210449217	-962.5032958984375	492.3369140625	230.3605804443358	-683.2329711914062	69.82360076904298	202.7852935791015	-878.0485229492188	83.64220428466798	226.8527984619139	-724.564208984375	52.01569747924805	154.4227294921874	-923.0531005859375	53.89135742187501	162.3763580322264	-370.2230224609375	1361.06689453125	151.3584747314452	-363.1421203613281	1316.92724609375	197.134567260742	-1261.6728515625	1370.676391601562	247.430236816406	-1500.624633789062	1425.871337890625	182.114562988281	-125.8217086791992	1405.997314453125	118.8335876464843	-739.1199340820312	1643.024658203125	314.5544433593748	-739.7371215820312	1578.63916015625	177.6161804199217	-868.4252319335938	1580.0859375	162.2260589599607	-955.9915771484375	1447.90771484375	230.2732086181639	-666.6109008789062	1434.984741210938	218.5220336914061	-810.8806762695312	1386.37548828125	315.4925231933592	-38.72875213623048	1386.483642578125	99.8657684326171	-1594.561157226562	1466.165771484375	161.1517944335935	
98	0.8083333333333333	-884.814697265625	1639.002807617188	315.9878234863279	-958.8892211914062	75.39586639404298	216.3495178222655	-813.1754760742188	1234.012817382812	355.0557556152342	-763.9356079101562	77.66721343994142	224.1648406982421	-674.7275390625	481.8839721679688	237.124053955078	-818.9186401367188	1210.985595703125	153.7104187011717	-1262.77880859375	1408.764526367188	193.3443298339841	-1487.515258789062	1481.552856445312	202.7213897705076	-817.6055908203125	1452.998046875	197.0063171386717	-701.9301147460938	985.0911865234375	328.5648193359373	-697.3572998046875	37.5514831542969	392.4310913085936	-918.3744506835938	38.58246231079104	399.587432861328	-121.2080688476563	1345.5859375	121.7024917602538	-762.4303588867188	1010.878112792969	173.9831695556639	-869.1146240234375	1011.949157714844	181.0127716064451	-916.1104125976562	988.2645874023438	337.7185668945311	-768.9254760742188	435.7809143066406	232.1103668212889	-867.5692138671875	441.9531860351562	218.7924346923827	-962.4978637695312	492.3294372558594	230.3432464599608	-683.22216796875	69.81917572021486	202.7854614257812	-878.0453491210938	83.63813781738283	226.852569580078	-724.5567626953125	52.02400970458985	154.4115600585937	-923.0443725585938	53.88706588745118	162.3770599365233	-370.1819458007812	1361.070434570312	151.4139862060545	-363.1075744628906	1316.917236328125	197.1787872314452	-1261.642944335938	1370.679809570312	247.4953765869138	-1500.602905273438	1425.912109375	182.2064666748044	-125.7711639404297	1406.011474609375	118.9434967041015	-739.0682373046875	1643.017456054688	314.6902770996091	-739.69384765625	1578.665161132812	177.6961059570311	-868.38525390625	1580.125122070312	162.3405303955076	-955.9605102539062	1447.911987304688	230.3251647949217	-666.5838012695312	1434.99462890625	218.5952758789061	-810.845947265625	1386.361572265625	315.5416259765623	-38.6807098388672	1386.5185546875	99.96797180175773	-1594.510498046875	1466.2265625	161.2441711425778	
99	0.8166666666666667	-884.7679443359375	1638.989990234375	316.1102905273435	-958.8878784179688	75.40414428710939	216.3476257324218	-813.1451416015625	1233.991943359375	355.0794372558592	-763.9374389648438	77.6707000732422	224.1469268798827	-674.70849609375	481.8840942382812	237.0862579345702	-818.8650512695312	1210.998046875	153.7363586425779	-1262.741088867188	1408.769165039062	193.4063415527341	-1487.478881835938	1481.578369140625	202.817932128906	-817.5673828125	1453.014282226562	197.0657806396482	-701.902587890625	985.075439453125	328.5547790527342	-697.3510131835938	37.54030609130862	392.4137268066405	-918.3724365234375	38.58559799194338	399.5937499999999	-121.1689147949219	1345.59814453125	121.7807617187499	-762.3902587890625	1010.888732910156	173.9889526367186	-869.08935546875	1011.968566894531	181.0065460205076	-916.0843505859375	988.2582397460938	337.7250061035155	-768.8993530273438	435.7793273925781	232.0774536132811	-867.5648803710938	441.9508972167969	218.7923583984374	-962.4808959960938	492.339111328125	230.3409423828124	-683.2340087890625	69.81034088134767	202.7764739990234	-878.04736328125	83.63896942138673	226.8314971923827	-724.55078125	52.0106315612793	154.4176788330077	-923.0494995117188	53.89133834838868	162.3770141601561	-370.1487731933594	1361.068359375	151.4757843017577	-363.0851440429688	1316.919921875	197.2235260009764	-1261.6142578125	1370.693481445312	247.5591583251951	-1500.559814453125	1425.934448242188	182.2893829345701	-125.7208938598633	1406.029541015625	119.0391616821288	-739.036865234375	1642.990478515625	314.8087768554685	-739.6497802734375	1578.681030273438	177.7986450195311	-868.349609375	1580.159423828125	162.4341430664061	-955.9225463867188	1447.914916992188	230.3672180175779	-666.5394897460938	1434.997802734375	218.6580657958983	-810.8046264648438	1386.34912109375	315.6106567382811	-38.63534927368165	1386.544677734375	100.0578384399413	-1594.4580078125	1466.28125	161.3215026855466	
